<svg xmlns="http://www.w3.org/2000/svg" width="1000" height="146.272" viewBox="0 0 1000 146.272">
  <g>
    <polygon points="446.117 0 504.489 145.932 539.118 145.932 480.746 0 446.117 0"/>
    <polygon points="288.654 145.932 323.283 145.932 381.657 0 347.027 0 288.654 145.932"/>
    <polygon points="168.266 100.873 141.447 33.674 102.922 33.674 76.104 100.873 33.808 0 0 0 61.189 145.932 91.688 145.932 122.184 69.517 152.681 145.932 183.181 145.932 244.37 0 210.562 0 168.266 100.873"/>
    <path d="M762.409,55.123A54.569,54.569,0,0,0,707.9.617H608.127V145.932H639.3v-36.3h64.189l14.521,36.3h33.578l-17.269-43.171A54.531,54.531,0,0,0,762.409,55.123ZM639.3,31.794h68.6a23.33,23.33,0,0,1,0,46.659H639.3Z"/>
    <path d="M945.494.617H845.921V145.932H876.9v-36.3h68.6a54.507,54.507,0,0,0,0-109.013Zm0,77.836H876.9V31.794h68.6a23.33,23.33,0,0,1,0,46.659Z"/>
    <rect x="398.411" y="42.705" width="31.177" height="33.457"/>
    <polygon points="398.411 145.932 398.411 146.272 429.588 146.272 429.588 145.932 429.588 112.815 398.411 112.815 398.411 145.932"/>
  </g>
</svg>
